<svg class="sage-logo" xmlns="http://www.w3.org/2000/svg" viewBox="50 0 390 390">
    <defs>
        <style>
            .sage-logo {
                fill: none;
                stroke-linecap: round;
                stroke-linejoin: round;
                stroke: #fff;
            }
            .bulb {
                stroke-width: 8;
            }
            .stem {
                stroke-width: 6.4;
            }
            .stem .stem-base {
                stroke-linecap: butt;
            }
            .petal {
                stroke-width: 4;
            }
            .circle {
                fill: #212529;
                stroke: none;
            }
        </style>
    </defs>

    <circle class="circle" cx="245" cy="195" r="194" />

    <g class="bulb">
        <path d="
            M 245.34,258.12
            h 33.75
            c 0,0 -.09 -7.18,0 -26.75,0 -39.8,33 -24.43,33 -61.73 .08 -15.34 .75 -50.91 .75 -62,0 -7.34 -26.21 -35.67 -33.75 -35.67
            h -67.5
            c -7.55,0 -33.75,28.33 -33.75,35.67,0,11.06 .67,46.63 .75,62,0,37.3,33,21.93,33,61.73 0,20,0,27,0,27
            Z
            "/>
        <path d="
            M 269.13,303.48
            c 2.74,0,7.94-2.79,7.94-6.47
            s .13 -12,.13 -27
            H 214.56
            c 0,.15 .13,23.33 .13,27
            s 5.2,6.47,7.94,6.47
            h 46.5
            Z
            "/>
    </g>

    <g class="stem">
        <path class="stem-base" d="M246.33,254.25V146.16"/>
        <path d="M246.33,146.16V96.16"/>
        <path d="M246.33,201.6l-40.77-25v-29"/>
        <path d="M246.33,174.63l34.11-20.82V129.67"/>
        <path d="M246.33,138.86l-14.15-8.79V119.88"/>
    </g>

    <g class="petal">
        <path d="M201.77,145.73v5.89"/>
        <path d="M209.25,151.26v5.9"/>
        <path d="M201.77,157.52v5.89"/>
        <path d="M209.25,163.89v5.9"/>
        <path d="M211.68,176l4.52,2.88"/>
        <path d="M201.77,170.84v5.89"/>
        <path d="M276.75,128.22v5.9"/>
        <path d="M284,134.84v5.89"/>
        <path d="M276.75,140.85v5.9"/>
        <path d="M274.32,153l-4.52,2.88"/>
        <path d="M284,148.16v5.89"/>
        <path d="M228.22,123.93v5.9"/>
        <path d="M236.52,128.16l4.68,2.52"/>
        <path d="M235.84,118.25v5.16"/>
        <path d="M242.15,97v5.89"/>
        <path d="M250.18,103.77v5.9"/>
        <path d="M242.15,110.36v5.89"/>
        <path d="M250.14,116.84v5.89"/>
    </g>
</svg>
